cdparanoia III release 10.2 (September 11, 2008)


Table of contents (audio tracks only):
track        length               begin        copy pre ch
===========================================================
  1.    26786 [05:57.11]        0 [00:00.00]    no   no  2
  2.    49637 [11:01.62]    26786 [05:57.11]    no   no  2
  3.     7302 [01:37.27]    76423 [16:58.73]    no   no  2
  4.    42096 [09:21.21]    83725 [18:36.25]    no   no  2
  5.     8649 [01:55.24]   125821 [27:57.46]    no   no  2
  6.    26678 [05:55.53]   134470 [29:52.70]    no   no  2
  7.    31339 [06:57.64]   161148 [35:48.48]    no   no  2
  8.    19467 [04:19.42]   192487 [42:46.37]    no   no  2
  9.    52712 [11:42.62]   211954 [47:06.04]    no   no  2
 10.    41168 [09:08.68]   264666 [58:48.66]    no   no  2
 11.    19569 [04:20.69]   305834 [67:57.59]    no   no  2
TOTAL  325403 [72:18.53]    (audio only)
